Coordinates
version=1
nRows=9
nColumns=24
inDegrees=yes

Units are S.I. units (second, meters, Newtons, ...)
Angles are in degrees.

endheader
time	pelvis_tilt	pelvis_list	pelvis_rotation	pelvis_tx	pelvis_ty	pelvis_tz	hip_flexion_r	hip_adduction_r	hip_rotation_r	knee_angle_r	ankle_angle_r	subtalar_angle_r	mtp_angle_r	hip_flexion_l	hip_adduction_l	hip_rotation_l	knee_angle_l	ankle_angle_l	subtalar_angle_l	mtp_angle_l	lumbar_extension	lumbar_bending	lumbar_rotation
      4.53000000	     -4.61213647	     -7.61431252	      2.63216871	     -0.88902930	     -0.01978643	     -0.36405390	     19.85562175	     11.71250517	     -2.66891892	    -20.57231189	      0.96480219	    -12.34435255	      3.64287359	      7.10406264	    -14.18691592	     -8.92417159	    -56.78750858	    -24.45671502	     -5.29918205	     25.45042090	      1.83130286	      7.63364454	     -4.10875427
      4.53500000	     -4.61717677	     -7.42955311	      2.71551574	     -0.88262063	     -0.01851376	     -0.36374196	     19.15612125	     11.48942800	     -2.89592657	    -20.04244071	      0.85857045	    -12.09150833	      5.91280122	      7.97434059	    -13.99338112	     -8.71436946	    -57.54160414	    -22.71576278	     -6.13808856	     23.24579036	      1.84809064	      7.38664899	     -3.88344806
      4.54000000	     -4.54675647	     -7.20234968	      2.77500323	     -0.87617107	     -0.01708445	     -0.36330221	     18.38068885	     11.27020257	     -3.00423910	    -19.60345605	      1.22615642	    -11.64380771	      6.26779861	      8.68543428	    -13.75741302	     -8.55851847	    -58.03901003	    -21.61945701	     -7.31803873	     23.05578386	      1.78964657	      7.08895778	     -3.61904828
      4.54500000	     -4.53521364	     -6.91047362	      2.89187669	     -0.86988054	     -0.01577646	     -0.36298683	     17.71125045	     10.94530953	     -3.19647122	    -19.19377684	      1.37339743	    -11.30630383	      7.63915961	      9.53760090	    -13.40128122	     -8.29790330	    -58.65933769	    -19.87365407	     -7.99387993	     20.39729787	      1.77641318	      6.71138538	     -3.45437403
      4.55000000	     -4.50632569	     -6.64299043	      2.94649236	     -0.86350960	     -0.01438762	     -0.36246131	     16.99665110	     10.72339901	     -3.13985876	    -18.76713993	      1.53929231	    -11.23230677	      7.75817497	     10.29310985	    -13.09616023	     -8.15112027	    -59.02769847	    -19.00265750	     -9.25771861	     20.06117486	      1.75532673	      6.35196657	     -3.18990487
      4.55500000	     -4.51413578	     -6.35756691	      3.03611668	     -0.85723380	     -0.01317482	     -0.36215746	     16.37809613	     10.43046580	     -3.25846123	    -18.42629997	      1.77073813	    -10.95817673	      8.42798204	     11.16214646	    -12.72856228	     -7.96090402	    -59.57057936	    -17.27249361	     -9.91911365	     16.43732519	      1.76740423	      5.99082464	     -2.97280855
      4.56000000	     -4.53507546	     -6.06130756	      3.06673230	     -0.85088081	     -0.01197186	     -0.36171334	     15.75806746	     10.17258922	     -3.16377347	    -18.09105823	      2.03384020	    -10.80114185	      8.51685436	     11.97848786	    -12.35876740	     -7.85072633	    -59.93322784	    -16.05284707	    -10.85718995	     14.25823768	      1.80271464	      5.61088411	     -2.74749271
      4.56500000	     -4.58073530	     -5.77535167	      3.06141663	     -0.84452900	     -0.01085916	     -0.36123185	     15.17924639	      9.94059790	     -2.99496610	    -17.79157465	      2.32891194	    -10.67054292	      8.34539342	     12.80656876	    -12.00170705	     -7.79047677	    -60.24453608	    -14.87355067	    -11.76555868	     12.00228700	      1.86506241	      5.24502091	     -2.51671459
      4.57000000	     -4.60960313	     -5.49386144	      3.07161871	     -0.83824609	     -0.00978817	     -0.36076595	     14.59904264	      9.71722005	     -2.82195838	    -17.51122870	      2.61046268	    -10.63101660	      7.98222449	     13.62352371	    -11.63368517	     -7.70882116	    -60.51293763	    -13.69322894	    -12.58911878	      9.60079660	      1.90131026	      4.88371592	     -2.27761664
